<?xml version="1.0" standalone="no"?>
<!DOCTYPE svg PUBLIC "-//W3C//DTD SVG 20010904//EN"
 "http://www.w3.org/TR/2001/REC-SVG-20010904/DTD/svg10.dtd">
<svg version="1.0" xmlns="http://www.w3.org/2000/svg"
 width="290.000000pt" height="290.000000pt" viewBox="0 0 290.000000 290.000000"
 preserveAspectRatio="xMidYMid meet">
<metadata>
Created by potrace 1.11, written by Peter Selinger 2001-2013
</metadata>
<g transform="translate(0.000000,290.000000) scale(0.100000,-0.100000)"
fill="#000000" stroke="none">
<path d="M1260 2320 l-175 -290 -357 0 -357 0 174 -290 c96 -160 175 -295 175
-300 0 -5 -79 -140 -175 -300 l-174 -290 357 0 357 0 177 -291 177 -291 34 53
c18 30 98 161 178 292 l144 237 357 0 c197 0 358 2 358 5 0 3 -76 130 -169
283 -94 152 -172 284 -176 292 -3 10 63 127 170 303 96 157 175 289 175 292 0
3 -161 5 -358 5 l-358 0 -174 290 c-96 159 -177 289 -180 289 -3 0 -84 -130
-180 -289z m262 -160 l77 -130 -159 0 -159 0 77 130 c42 71 79 129 82 129 3 0
40 -58 82 -129z m-548 -312 c-29 -53 -130 -216 -139 -226 -10 -11 -27 10 -88
112 l-76 126 155 0 c121 0 154 -3 148 -12z m859 -198 l127 -210 -127 -210
-126 -210 -266 0 -266 1 -120 201 c-66 111 -120 209 -120 218 0 9 54 107 120
218 l120 201 266 1 266 0 126 -210z m377 204 c0 -12 -143 -244 -151 -244 -4 0
-35 45 -67 99 -33 54 -68 111 -77 125 l-17 26 156 0 c86 0 156 -3 156 -6z
m-1305 -706 c38 -62 70 -116 72 -120 2 -5 -66 -8 -151 -8 l-155 0 75 125 c42
69 79 123 83 120 5 -2 39 -55 76 -117z m1235 1 c39 -66 70 -123 67 -125 -2 -3
-72 -3 -154 -2 l-151 3 75 123 c41 67 78 122 83 122 4 0 40 -54 80 -121z
m-618 -429 c-42 -71 -79 -129 -82 -129 -3 0 -40 58 -82 129 l-77 130 159 0
159 0 -77 -130z"/>
</g>
</svg>
